<svg height="24" viewBox="0 0 24 24" width="24" xmlns="http://www.w3.org/2000/svg"><path d="m1 1h22v22h-22zm10.1196337 8.18908425c0-.60285714.494652-.83472528 1.3139194-.83472528 1.1747985 0 2.6587546.35553114 3.8335531.98930403v-3.63260073c-1.2830036-.51010989-2.5505494-.71106227-3.8335531-.71106227-3.1379487 0-5.22476189 1.6385348-5.22476189 4.37457875 0 4.26637365 5.87399269 3.58622715 5.87399269 5.42571425 0 .7110623-.618315.9429304-1.4839561.9429304-1.2830036 0-2.92153842-.5255677-4.21999996-1.23663v3.6789744c1.43758242.618315 2.89062266.8810989 4.21999996.8810989 3.2152381 0 5.4257143-1.5921612 5.4257143-4.3591209-.0154579-4.6064469-5.9049084-3.7871795-5.9049084-5.51846155z" fill="#aacbfb" /></svg>